<svg width="32" height="32" viewBox="0 0 32 32" fill="none" xmlns="http://www.w3.org/2000/svg">
<rect width="32" height="32" rx="16" fill="#75C5F0"/>
<path d="M21.6 9.59999H10.4C9.76348 9.59999 9.15303 9.85285 8.70294 10.3029C8.25286 10.753 8 11.3635 8 12V20C8 20.6365 8.25286 21.247 8.70294 21.697C9.15303 22.1471 9.76348 22.4 10.4 22.4H21.6C22.2365 22.4 22.847 22.1471 23.2971 21.697C23.7471 21.247 24 20.6365 24 20V12C24 11.3635 23.7471 10.753 23.2971 10.3029C22.847 9.85285 22.2365 9.59999 21.6 9.59999ZM10.4 11.2H21.6C21.8122 11.2 22.0157 11.2843 22.1657 11.4343C22.3157 11.5843 22.4 11.7878 22.4 12L16 15.904L9.6 12C9.6 11.7878 9.68429 11.5843 9.83431 11.4343C9.98434 11.2843 10.1878 11.2 10.4 11.2ZM22.4 20C22.4 20.2122 22.3157 20.4156 22.1657 20.5657C22.0157 20.7157 21.8122 20.8 21.6 20.8H10.4C10.1878 20.8 9.98434 20.7157 9.83431 20.5657C9.68429 20.4156 9.6 20.2122 9.6 20V13.824L15.584 17.48C15.7056 17.5502 15.8436 17.5872 15.984 17.5872C16.1244 17.5872 16.2624 17.5502 16.384 17.48L22.4 13.824V20Z" fill="white"/>
</svg>
